<svg width="25" height="25" viewBox="0 0 25 25" fill="none" xmlns="http://www.w3.org/2000/svg">
<path d="M5 17.25V6.75" stroke="#9A74FF" stroke-width="2" stroke-linecap="round" stroke-linejoin="round"/>
<path d="M20 6.75V17.25" stroke="#9A74FF" stroke-width="2" stroke-linecap="round" stroke-linejoin="round"/>
<path d="M9.5 12V13.5" stroke="#9A74FF" stroke-width="2" stroke-linecap="round" stroke-linejoin="round"/>
<path d="M12.5 11.25V13.5" stroke="#9A74FF" stroke-width="2" stroke-linecap="round" stroke-linejoin="round"/>
<path d="M15.5 10.5V13.5" stroke="#9A74FF" stroke-width="2" stroke-linecap="round" stroke-linejoin="round"/>
<path d="M20.75 3.75H4.25C3.83579 3.75 3.5 4.08579 3.5 4.5V6C3.5 6.41421 3.83579 6.75 4.25 6.75H20.75C21.1642 6.75 21.5 6.41421 21.5 6V4.5C21.5 4.08579 21.1642 3.75 20.75 3.75Z" stroke="#9A74FF" stroke-width="2" stroke-linecap="round" stroke-linejoin="round"/>
<path d="M12.5 17.25V20.25" stroke="#9A74FF" stroke-width="2" stroke-linecap="round" stroke-linejoin="round"/>
<path d="M12.5 23.25C13.3284 23.25 14 22.5784 14 21.75C14 20.9216 13.3284 20.25 12.5 20.25C11.6716 20.25 11 20.9216 11 21.75C11 22.5784 11.6716 23.25 12.5 23.25Z" stroke="#9A74FF" stroke-width="2" stroke-linecap="round" stroke-linejoin="round"/>
<path d="M3.5 17.25H21.5" stroke="#9A74FF" stroke-width="2" stroke-linecap="round" stroke-linejoin="round"/>
</svg>
